<?xml version="1.0" encoding="UTF-8"?> <svg xmlns="http://www.w3.org/2000/svg" xmlns:xlink="http://www.w3.org/1999/xlink" viewBox="0 0 900 900"><defs><style>.cls-1{fill:none;clip-rule:evenodd;}.cls-2{isolation:isolate;}.cls-3{fill:#008fca;}.cls-4{fill:#6f6b67;}.cls-5{clip-path:url(#clip-path);}.cls-6{mix-blend-mode:overlay;}.cls-7{fill:#1b58a7;}.cls-8{clip-path:url(#clip-path-2);}.cls-9{fill:#8ed1f3;}.cls-10{clip-path:url(#clip-path-3);}.cls-11{fill:#3fb0e4;}</style><clipPath id="clip-path"><path class="cls-1" d="M517.39,630.8C392,619.62,267.29,531.85,215,415.58,169.26,314.1,208.27,147,353.26,229c102.84,58.2,67.36,183.62,147.88,273.75,58,64.94,139.84,45.77,124.39,89.2-12.87,36.23-77.63,41.57-108.14,38.84"></path></clipPath><clipPath id="clip-path-2"><path class="cls-1" d="M589.85,303.34c16.94-8.08,61.55-16.87,93.15,9.43,23.16,19.29,31.9,44.26,20.43,72.12-8,19.44-28.43,39.63-44.9,52.7-53.64,42.58-101.36,31.48-119.39,121.46-6,30.14,13.08,65.75-12,65.19-24.18-.53-56.49-43.3-64.33-84.13C436.5,402.85,524,334.78,589.85,303.34"></path></clipPath><clipPath id="clip-path-3"><path class="cls-1" d="M426.91,194.33c18.84-28.93,53.51-68.27,109.31-65.16,40.89,2.28,70.66,22.45,80.71,62.16,7,27.69,1.07,66.27-6.31,93.87-24,89.92-85.13,116.47-31.9,229.29,17.82,37.79,67.52,61.15,39.75,80.82-26.82,19-96.74-1.49-138.36-39.69-139.95-128.47-107.35-278.17-53.2-361.29"></path></clipPath></defs><g class="cls-2"><g id="Layer_1" data-name="Layer 1"><path class="cls-3" d="M209.56,697.3a98.89,98.89,0,0,1,18.75-1.65c10.26,0,16.86,1.77,21.81,5.78,4.13,3.07,6.6,7.78,6.6,14,0,7.67-5.07,14.39-13.44,17.46v.23c7.55,1.88,16.38,8.13,16.38,19.92A21.45,21.45,0,0,1,253,769c-5.54,5.07-14.5,7.42-27.47,7.42a118.71,118.71,0,0,1-15.92-.94Zm10.26,32.54h9.32c10.84,0,17.21-5.66,17.21-13.32,0-9.32-7.08-13-17.45-13a43.46,43.46,0,0,0-9.08.71Zm0,38.08a55.27,55.27,0,0,0,8.61.47c10.6,0,20.39-3.89,20.39-15.44,0-10.85-9.31-15.33-20.51-15.33h-8.49Z"></path><path class="cls-3" d="M273.46,696.24h10.25V767.1h34v8.6H273.46Z"></path><path class="cls-3" d="M339.36,696.24v47c0,17.8,7.9,25.35,18.51,25.35,11.79,0,19.34-7.79,19.34-25.35v-47h10.37v46.33c0,24.4-12.85,34.43-30.06,34.43-16.27,0-28.53-9.32-28.53-34v-46.8Z"></path><path class="cls-3" d="M446.52,738.44H415.64V767.1h34.42v8.6H405.38V696.24h42.91v8.61H415.64V730h30.88Z"></path><path class="cls-4" d="M462,763.2a36.32,36.32,0,0,0,18.39,5.19c10.49,0,16.62-5.54,16.62-13.56,0-7.43-4.24-11.67-15-15.79-13-4.6-21-11.33-21-22.52,0-12.38,10.25-21.57,25.7-21.57,8.13,0,14,1.88,17.56,3.89l-2.83,8.36a31.7,31.7,0,0,0-15.09-3.77c-10.84,0-15,6.48-15,11.91,0,7.42,4.83,11.08,15.8,15.33,13.44,5.18,20.28,11.66,20.28,23.33,0,12.27-9.08,22.87-27.83,22.87-7.66,0-16-2.24-20.27-5.06Z"></path><path class="cls-4" d="M562.65,738.44H531.76V767.1h34.43v8.6H521.5V696.24h42.92v8.61H531.76V730h30.89Z"></path><path class="cls-4" d="M592.36,750.7l-8.25,25H573.5l27-79.46h12.38L640,775.7H629l-8.48-25Zm26-8-7.78-22.87c-1.76-5.19-3-9.91-4.13-14.51h-.23c-1.18,4.72-2.48,9.56-4,14.39l-7.78,23Z"></path><path class="cls-4" d="M650.25,763.2a36.35,36.35,0,0,0,18.39,5.19c10.49,0,16.62-5.54,16.62-13.56,0-7.43-4.24-11.67-15-15.79-13-4.6-21-11.33-21-22.52,0-12.38,10.26-21.57,25.7-21.57,8.14,0,14,1.88,17.57,3.89l-2.83,8.36a31.73,31.73,0,0,0-15.09-3.77c-10.85,0-15,6.48-15,11.91,0,7.42,4.83,11.08,15.79,15.33,13.44,5.18,20.28,11.66,20.28,23.33,0,12.27-9.08,22.87-27.82,22.87-7.66,0-16-2.24-20.28-5.06Z"></path><g class="cls-5"><g class="cls-6"><rect class="cls-7" x="120.24" y="99.81" width="569.77" height="580.87" transform="translate(-77.94 102.03) rotate(-13.11)"></rect></g></g><g class="cls-8"><g class="cls-6"><rect class="cls-9" x="399.56" y="307.86" width="352.3" height="295.56" transform="translate(90.85 1006.95) rotate(-87.03)"></rect></g></g><g class="cls-10"><g class="cls-6"><rect class="cls-11" x="283.8" y="95.46" width="418.8" height="549.45" transform="translate(-77.11 135.59) rotate(-14.53)"></rect></g></g></g></g></svg> 